<svg xmlns="http://www.w3.org/2000/svg" id="_Слой_2" data-name="Слой 2" viewBox="0 0 625.1 624.4"><defs><style>.cls-2{fill:#ff5b5b}</style></defs><g id="_Слой_2-2" data-name="Слой 2"><path d="m355 474-18 21c-26 26-51 52-78 77-25 26-58 43-93 50l-20 2c-51 0-97-36-125-77-10-16-17-34-20-54l-1-29 1-13c9-35 28-68 55-94l126-126c25-25 55-42 89-51l13-1h24c27 2 49 14 70 30 14 10 25 21 35 35l13 22c2 2 1 4-1 6l-45 46-6 8c-5-49-54-83-102-73-11 2-20 9-28 16L93 421a69 69 0 0 0-19 39l-2 6v15c3 6 3 13 6 19 7 17 19 29 33 40 8 6 18 6 27 10h19c6 0 11-3 17-5 15-4 27-13 38-24 0 0 59-59 62-57 5 3 42 10 54 10" style="fill:#ff5c5b"/><path d="M313 445c-20-2-39-9-56-21-23-15-42-34-56-58-8-13-8-9 2-19l47-48c2 20 11 36 24 49 14 13 29 23 49 24h22c9-1 17-6 25-11 13-8 23-18 33-29l4-5 92-91c2-2 3-4 5-4 15-15 31-29 40-49 3-9 7-17 7-27v-13c-3-23-15-40-32-54-10-7-22-12-34-15h-20c-13 2-25 7-36 15-8 5-16 12-23 19l-51 52c-2 2-86-8-96-4l17-15 94-94c22-22 49-36 79-43 5-2 11-2 16-3h20c27 2 50 13 71 29 26 19 48 43 60 73 6 17 10 35 9 53-4 39-21 75-49 101L429 404c-15 14-34 25-54 33-11 4-23 8-36 8h-26Z" class="cls-2"/><path d="m289 287 18 9c3 3 6 2 8 0l12-11c1-1 2-3 3-2 2 1 1 2 1 3l-2 15c-1 4-1 7 4 9l15 8 1 2c0 2-1 1-2 2l-16 2c-3 0-5 2-5 5l-3 16c0 2 1 4-1 4-2 1-3-2-4-3l-8-15c-2-2-4-4-7-3-5 1-11 0-16 2h-3c-1-1 1-2 2-3l10-12c3-2 3-4 2-7l-10-20 1-1Zm-30-131L385 34s72-63 149-18" class="cls-2"/></g></svg>